<svg xmlns="http://www.w3.org/2000/svg" viewBox="0 0 100 100" width="100" height="100"><defs><linearGradient id="fire" x1="0" y1="0" x2="0" y2="1"><stop offset="0" stop-color="#FFD24A"/><stop offset="1" stop-color="#FF5A2E"/></linearGradient></defs>
    <path d="M30 40 C30 28 38 26 36 16 C44 22 42 30 46 32 C46 24 52 20 50 10 C60 18 58 28 62 32 C64 26 70 26 70 20 C76 30 72 38 72 42 Z" fill="url(#fire)"/>
    <rect x="30" y="34" width="40" height="9" rx="4.5" fill="#C9674A"/><rect x="34" y="36" width="32" height="2.5" rx="1.2" fill="#E88A6A"/>
    <path d="M16 46 H84 Q84 74 50 74 Q16 74 16 46 Z" fill="#2B2B35"/><path d="M16 46 H84" stroke="#555566" stroke-width="4" stroke-linecap="round"/>
    <path d="M30 72 L22 92 M70 72 L78 92 M50 74 V92" stroke="#2B2B35" stroke-width="5" stroke-linecap="round"/><ellipse cx="34" cy="54" rx="10" ry="4" fill="#fff" opacity=".18"/></svg>