<svg xmlns="http://www.w3.org/2000/svg" viewBox="0 0 100 100" width="100" height="100"><defs><linearGradient id="fl" x1="0" y1="0" x2="0" y2="1"><stop offset="0" stop-color="#FFD24A"/><stop offset="1" stop-color="#FF4D2E"/></linearGradient></defs><path d="M50 8 C58 26 80 34 78 62 C77 80 64 92 50 92 C36 92 22 81 22 63 C22 48 32 42 34 30 C42 38 44 44 46 48 C48 36 44 22 50 8 Z" fill="url(#fl)"/><path d="M50 50 C56 60 66 64 64 76 C63 85 57 90 50 90 C43 90 37 85 36 77 C35 68 44 64 50 50 Z" fill="#FFE27A"/><path d="M36 67.5 Q41 61 46 67.5" stroke="#2A1B3D" stroke-width="3.2" fill="none" stroke-linecap="round"/><path d="M54 67.5 Q59 61 64 67.5" stroke="#2A1B3D" stroke-width="3.2" fill="none" stroke-linecap="round"/><path d="M43 73 Q50 85 57 73 Z" fill="#7A1F3D"/><ellipse cx="50" cy="79.2" rx="3.4" ry="2.2" fill="#FF6F91"/></svg>