<svg xmlns="http://www.w3.org/2000/svg" viewBox="0 0 100 100" width="100" height="100"><defs><linearGradient id="cone" x1="0" y1="0" x2="0" y2="1"><stop offset="0" stop-color="#8F78FF"/><stop offset="1" stop-color="#5A3DF0"/></linearGradient></defs><path d="M14 90 L36 30 L72 66 Z" fill="url(#cone)"/><path d="M22 68 L50 44 M18 80 L60 55" stroke="#FFD84A" stroke-width="5" stroke-linecap="round"/>
    <path d="M44 26 Q52 8 64 18 T84 10" stroke="#FF5C9A" stroke-width="4" fill="none" stroke-linecap="round"/><path d="M58 40 Q72 30 78 44 T92 40" stroke="#3FC3A0" stroke-width="4" fill="none" stroke-linecap="round"/>
    <circle cx="82" cy="24" r="4" fill="#FFB22E"/><circle cx="70" cy="8" r="3" fill="#3B8EF0"/><rect x="86" y="52" width="7" height="7" rx="1.5" fill="#FF5C9A" transform="rotate(20 89 55)"/><circle cx="50" cy="12" r="3.5" fill="#22C065"/><path d="M90 67 Q90.9 71.1 95 72 Q90.9 72.9 90 77 Q89.1 72.9 85 72 Q89.1 71.1 90 67 Z" fill="#FFD84A"/></svg>