<svg xmlns="http://www.w3.org/2000/svg" viewBox="0 0 100 100" width="100" height="100"><defs><linearGradient id="bg" x1="0" y1="0" x2="0" y2="1"><stop offset="0" stop-color="#E8F6F1"/><stop offset="1" stop-color="#C8EBDD"/></linearGradient></defs><circle cx="50" cy="50" r="50" fill="url(#bg)"/><g transform="translate(50 57) scale(.8) translate(-50 -52)"><defs><linearGradient id="b21" x1="0" y1="0" x2="0" y2="1"><stop offset="0" stop-color="#C9C9DA"/><stop offset="1" stop-color="#9090AC"/></linearGradient></defs><circle cx="20" cy="37" r="16" fill="#9090AC"/><circle cx="80" cy="37" r="16" fill="#9090AC"/><circle cx="21" cy="38" r="9" fill="#F4E4EE"/><circle cx="79" cy="38" r="9" fill="#F4E4EE"/><path d="M50 21 C73 21 85 38 85 59 C85 80 71 90 50 90 C29 90 15 80 15 59 C15 38 27 21 50 21 Z" fill="url(#b21)"/><ellipse cx="35" cy="35" rx="10" ry="5.5" fill="#fff" opacity=".35" transform="rotate(-28 35 35)"/><ellipse cx="38" cy="55" rx="4.4" ry="5.4" fill="#2A1B3D"/><circle cx="39.6" cy="52.9" r="1.7" fill="#fff"/><ellipse cx="62" cy="55" rx="4.4" ry="5.4" fill="#2A1B3D"/><circle cx="63.6" cy="52.9" r="1.7" fill="#fff"/><ellipse cx="28" cy="65" rx="5.2" ry="3.2" fill="#FF8FB1" opacity=".6"/><ellipse cx="72" cy="65" rx="5.2" ry="3.2" fill="#FF8FB1" opacity=".6"/><ellipse cx="50" cy="65" rx="7.5" ry="9.5" fill="#3B3446"/><ellipse cx="47.5" cy="61" rx="2.2" ry="3" fill="#fff" opacity=".5"/><path d="M44 77 Q50 83.5 56 77" stroke="#2A1B3D" stroke-width="3" fill="none" stroke-linecap="round"/></g></svg>