<svg xmlns="http://www.w3.org/2000/svg" viewBox="0 0 100 100" width="100" height="100"><defs><linearGradient id="bg" x1="0" y1="0" x2="0" y2="1"><stop offset="0" stop-color="#FFEAE4"/><stop offset="1" stop-color="#FFD0C4"/></linearGradient></defs><circle cx="50" cy="50" r="50" fill="url(#bg)"/><g transform="translate(50 57) scale(.8) translate(-50 -52)"><defs><linearGradient id="b2" x1="0" y1="0" x2="0" y2="1"><stop offset="0" stop-color="#FFA391"/><stop offset="1" stop-color="#F0685A"/></linearGradient></defs><path d="M20 44 L24 12 L46 28 Z" fill="#F0685A"/><path d="M80 44 L76 12 L54 28 Z" fill="#F0685A"/><path d="M25 34 L27 20 L39 29 Z" fill="#FFD3C8"/><path d="M75 34 L73 20 L61 29 Z" fill="#FFD3C8"/><path d="M50 21 C73 21 85 38 85 59 C85 80 71 90 50 90 C29 90 15 80 15 59 C15 38 27 21 50 21 Z" fill="url(#b2)"/><ellipse cx="35" cy="35" rx="10" ry="5.5" fill="#fff" opacity=".35" transform="rotate(-28 35 35)"/><path d="M33 56.5 Q38 50 43 56.5" stroke="#2A1B3D" stroke-width="3.2" fill="none" stroke-linecap="round"/><path d="M57 56.5 Q62 50 67 56.5" stroke="#2A1B3D" stroke-width="3.2" fill="none" stroke-linecap="round"/><ellipse cx="28" cy="65" rx="5.2" ry="3.2" fill="#FF8FB1" opacity=".6"/><ellipse cx="72" cy="65" rx="5.2" ry="3.2" fill="#FF8FB1" opacity=".6"/><path d="M18 64 H28 M18 70 L28 68 M82 64 H72 M82 70 L72 68" stroke="#2A1B3D" stroke-width="1.6" stroke-linecap="round" opacity=".5"/><path d="M44 68 Q47 72.5 50 68 Q53 72.5 56 68" stroke="#2A1B3D" stroke-width="2.6" fill="none" stroke-linecap="round"/></g></svg>