<svg xmlns="http://www.w3.org/2000/svg" viewBox="0 0 100 100" width="100" height="100"><defs><linearGradient id="bg" x1="0" y1="0" x2="0" y2="1"><stop offset="0" stop-color="#E4ECFF"/><stop offset="1" stop-color="#C4D4FF"/></linearGradient></defs><circle cx="50" cy="50" r="50" fill="url(#bg)"/><g transform="translate(50 57) scale(.8) translate(-50 -52)"><defs><linearGradient id="b14" x1="0" y1="0" x2="0" y2="1"><stop offset="0" stop-color="#6474B4"/><stop offset="1" stop-color="#34407A"/></linearGradient></defs><path d="M50 21 C73 21 85 38 85 59 C85 80 71 90 50 90 C29 90 15 80 15 59 C15 38 27 21 50 21 Z" fill="url(#b14)"/><path d="M50 35 C58 27 77 33 77 53 C77 73 65 85 50 85 C35 85 23 73 23 53 C23 33 42 27 50 35 Z" fill="#fff"/><path d="M47 23 Q43 13 49 10 M51 22 Q51 11 57 11" stroke="#34407A" stroke-width="3.2" fill="none" stroke-linecap="round"/><ellipse cx="35" cy="35" rx="10" ry="5.5" fill="#fff" opacity=".35" transform="rotate(-28 35 35)"/><ellipse cx="38" cy="55" rx="4.4" ry="5.4" fill="#2A1B3D"/><circle cx="39.6" cy="52.9" r="1.7" fill="#fff"/><ellipse cx="62" cy="55" rx="4.4" ry="5.4" fill="#2A1B3D"/><circle cx="63.6" cy="52.9" r="1.7" fill="#fff"/><ellipse cx="28" cy="65" rx="5.2" ry="3.2" fill="#FF8FB1" opacity=".6"/><ellipse cx="72" cy="65" rx="5.2" ry="3.2" fill="#FF8FB1" opacity=".6"/><path d="M44 66 L50 62 L56 66 L50 72 Z" fill="#FF9A2E"/><path d="M44 66 L56 66" stroke="#E07512" stroke-width="1.2"/></g></svg>