<svg xmlns="http://www.w3.org/2000/svg" viewBox="0 0 240 240" width="240" height="240"><defs><filter id="cut" x="-15%" y="-15%" width="130%" height="130%">
  <feMorphology in="SourceAlpha" operator="dilate" radius="6" result="d"/><feFlood flood-color="#fff"/><feComposite in2="d" operator="in" result="edge"/>
  <feGaussianBlur in="d" stdDeviation="3.5" result="b"/><feOffset in="b" dy="4" result="bo"/><feFlood flood-color="#1B1340" flood-opacity=".22"/><feComposite in2="bo" operator="in" result="shadow"/>
  <feMerge><feMergeNode in="shadow"/><feMergeNode in="edge"/><feMergeNode in="SourceGraphic"/></feMerge></filter></defs><g filter="url(#cut)"><g transform="translate(36 8) scale(1.68)"><defs><linearGradient id="b19" x1="0" y1="0" x2="0" y2="1"><stop offset="0" stop-color="#FFA391"/><stop offset="1" stop-color="#F0685A"/></linearGradient></defs><path d="M20 44 L24 12 L46 28 Z" fill="#F0685A"/><path d="M80 44 L76 12 L54 28 Z" fill="#F0685A"/><path d="M25 34 L27 20 L39 29 Z" fill="#FFD3C8"/><path d="M75 34 L73 20 L61 29 Z" fill="#FFD3C8"/><path d="M50 21 C73 21 85 38 85 59 C85 80 71 90 50 90 C29 90 15 80 15 59 C15 38 27 21 50 21 Z" fill="url(#b19)"/><ellipse cx="35" cy="35" rx="10" ry="5.5" fill="#fff" opacity=".35" transform="rotate(-28 35 35)"/><ellipse cx="40.5" cy="55.5" rx="3.6" ry="4.2" fill="#2A1B3D"/><path d="M32 50.5 H44" stroke="#2A1B3D" stroke-width="3" stroke-linecap="round"/><ellipse cx="64.5" cy="55.5" rx="3.6" ry="4.2" fill="#2A1B3D"/><path d="M56 50.5 H68" stroke="#2A1B3D" stroke-width="3" stroke-linecap="round"/><ellipse cx="28" cy="65" rx="5.2" ry="3.2" fill="#FF8FB1" opacity=".6"/><ellipse cx="72" cy="65" rx="5.2" ry="3.2" fill="#FF8FB1" opacity=".6"/><path d="M18 64 H28 M18 70 L28 68 M82 64 H72 M82 70 L72 68" stroke="#2A1B3D" stroke-width="1.6" stroke-linecap="round" opacity=".5"/><path d="M45 69 H55" stroke="#2A1B3D" stroke-width="3" stroke-linecap="round"/><rect x="24" y="77" width="52" height="11" rx="5.5" fill="#D9493D" transform="rotate(7 50 82)"/><rect x="24" y="77" width="52" height="11" rx="5.5" fill="#E85A4D" transform="rotate(-7 50 82)"/></g><text x="120" y="186" text-anchor="middle" font-family="'SF Pro Rounded','Arial Rounded MT Bold','Nunito','Segoe UI',system-ui,sans-serif" font-weight="900" font-size="38" fill="#F0685A" stroke="#2A1B3D" stroke-width="2.4" paint-order="stroke" letter-spacing=".5" transform="rotate(-4 120 186)">NAH</text></g></svg>